:SAMPLES-PER-SECOND 24
:FULLY-SPECIFIED
:DEGREES
16
root  -0.753038 40.6126 18.7965 5.35634 -45.2961 2.36569
RightUpLeg  -3.13414 -2.31388 -1.94738
RightLeg  13.9234 -6.78475 -2.47917
RightFoot  -10.1283 -0.0976911 2.99112
RightToes  -2.08645e-008 3.77894e-005 6.81332e-007
Spine  -2.12744 1.82932 -1.01372
Spine1  5.11556 1.71389 1.17149
HEad  -31.8845 25.317 -13.9594
LeftShoulder1  7.25573 -13.0123 -37.8319
LeftArm  6.19059 20.9499 -33.2188
LeftForeArm  167.987 -67.8791 -155.794
LeftHand  -0.0214748 -4.68471 0.541097
RightShoulder  4.28558 7.00624 34.8768
RightArm  10.2325 -31.7672 31.4207
RightForeArm  144.093 74.906 139.791
RightHand  -0.417047 7.506 -4.10997
LeftUpLeg  -14.0082 4.56346 7.4063
LeftLeg  14.6211 2.38932 0.983085
LeftFoot  2.63475 1.92002 -15.7139
LeftToes  1.24767e-006 1.47042e-008 1.32732e-009
17
root  -0.588357 40.5017 18.7971 4.99339 -44.3867 2.62572
RightUpLeg  -3.08493 -2.48897 -2.12362
RightLeg  14.2289 -7.81473 -2.76506
RightFoot  -10.9393 -0.0823849 2.78706
RightToes  -2.08645e-008 3.77894e-005 6.81332e-007
Spine  -0.77433 2.37103 -0.316516
Spine1  4.27197 2.38901 0.523835
HEad  -32.2702 24.2926 -14.4347
LeftShoulder1  7.02612 -12.8004 -37.0229
LeftArm  7.0499 20.3208 -31.9904
LeftForeArm  166.215 -67.7306 -155.752
LeftHand  -0.127039 -4.21479 1.81383
RightShoulder  4.14685 6.91826 33.8996
RightArm  12.5211 -29.6509 29.6654
RightForeArm  143.792 74.9447 139.631
RightHand  -0.429061 7.48681 -4.22366
LeftUpLeg  -13.6044 6.10324 6.87851
LeftLeg  16.0686 2.13499 0.964198
LeftFoot  3.55184 2.07241 -15.932
LeftToes  1.24767e-006 1.47042e-008 1.32732e-009
18
root  -0.426811 40.0841 18.836 4.70747 -43.8121 2.42198
RightUpLeg  -3.37258 -1.86479 -1.89744
RightLeg  16.1667 -9.50067 -3.46078
RightFoot  -13.8114 -0.0462714 2.21579
RightToes  -2.08645e-008 3.77894e-005 6.81332e-007
Spine  -0.0760688 2.75447 0.569197
Spine1  4.69348 2.90322 -0.164313
HEad  -32.9651 23.7047 -14.8435
LeftShoulder1  6.82618 -12.5724 -36.4121
LeftArm  6.97346 18.4545 -30.4269
LeftForeArm  164.75 -68.3337 -154.873
LeftHand  -0.178792 -3.92318 2.49736
RightShoulder  4.0656 6.85637 33.3565
RightArm  13.7596 -25.9115 28.284
RightForeArm  141.177 75.7922 136.619
RightHand  -0.475414 7.65113 -4.58222
LeftUpLeg  -12.8641 7.10529 6.84616
LeftLeg  16.5684 0.502016 0.441091
LeftFoot  0.0641036 1.44099 -14.3281
LeftToes  1.24767e-006 1.47042e-008 1.32732e-009
19
root  -0.291214 39.5864 18.8852 4.88597 -42.8253 1.95844
RightUpLeg  -3.97328 -0.953039 -1.32799
RightLeg  18.4263 -11.8783 -4.61054
RightFoot  -17.0376 -0.0313815 1.6928
RightToes  -2.08645e-008 3.77894e-005 6.81332e-007
Spine  -0.472416 2.7627 1.65327
Spine1  6.22545 3.05203 -0.974959
HEad  -33.9992 23.5711 -15.3712
LeftShoulder1  7.0002 -12.7245 -37.0637
LeftArm  5.70412 15.7013 -27.4959
LeftForeArm  162.483 -70.1972 -152.116
LeftHand  -0.231964 -3.89813 3.16713
RightShoulder  4.06422 6.83136 33.4377
RightArm  12.7688 -22.3807 28.735
RightForeArm  132.749 77.747 127.098
RightHand  -0.542711 7.58803 -5.20733
LeftUpLeg  -13.1073 5.58486 6.8207
LeftLeg  17.2122 1.30406 0.760226
LeftFoot  -4.53926 0.790375 -12.7779
LeftToes  1.24767e-006 1.47042e-008 1.32732e-009
20
root  -0.200657 39.2373 18.9017 5.03555 -40.9565 1.66335
RightUpLeg  -4.23188 -0.280261 -0.617215
RightLeg  19.9021 -14.774 -6.04822
RightFoot  -19.1838 -0.0431846 1.2643
RightToes  -2.08645e-008 3.77894e-005 6.81332e-007
Spine  -0.933529 2.51645 2.23178
Spine1  7.67498 2.85913 -1.20241
HEad  -34.8755 23.3477 -15.5122
LeftShoulder1  7.26598 -13.0009 -37.9212
LeftArm  4.04237 13.1463 -25.1482
LeftForeArm  158.731 -73.1924 -146.425
LeftHand  -0.294445 -3.905 3.9467
RightShoulder  4.10495 6.84511 33.7775
RightArm  9.95602 -21.1418 30.6461
RightForeArm  120.682 79.3179 113.982
RightHand  -0.689325 7.10393 -6.74194
LeftUpLeg  -14.7067 2.47034 6.65988
LeftLeg  19.7278 3.76885 1.82862
LeftFoot  -6.39053 0.542261 -11.6302
LeftToes  1.24767e-006 1.47042e-008 1.32732e-009
21
root  -0.186823 39.1226 18.9005 5.42165 -39.2596 1.15108
RightUpLeg  -3.87411 -0.501882 0.192787
RightLeg  19.6185 -16.5176 -6.63297
RightFoot  -19.7722 -0.056449 1.04854
RightToes  -2.08645e-008 3.77894e-005 6.81332e-007
Spine  -0.449789 2.57067 2.48186
Spine1  7.36387 2.87034 -0.932382
HEad  -35.132 22.8858 -15.3395
LeftShoulder1  7.30529 -13.043 -38.0419
LeftArm  2.52681 12.9624 -24.9088
LeftForeArm  156.533 -74.9328 -142.121
LeftHand  -0.312839 -3.67636 4.2674
RightShoulder  4.1924 6.91538 34.3448
RightArm  7.25595 -22.8552 32.0915
RightForeArm  117.621 79.5495 110.877
RightHand  -0.592938 6.79611 -5.98422
LeftUpLeg  -17.5881 1.5823 7.10433
LeftLeg  24.2972 3.16873 1.88316
LeftFoot  -6.27795 0.551374 -11.5926
LeftToes  1.24767e-006 1.47042e-008 1.32732e-009
22
root  -0.200803 39.2139 18.9954 5.67387 -38.6231 0.571808
RightUpLeg  -2.50046 -2.0035 0.432467
RightLeg  17.2915 -15.8237 -5.64972
RightFoot  -19.1062 -0.069382 0.880091
RightToes  -2.08645e-008 3.77894e-005 6.81332e-007
Spine  0.257354 2.93724 3.53305
Spine1  6.69343 3.41731 -1.68089
HEad  -34.7479 22.6128 -15.4622
LeftShoulder1  7.15004 -12.8612 -37.5996
LeftArm  0.870357 15.2367 -26.0527
LeftForeArm  158.549 -74.2091 -144.185
LeftHand  -0.343628 -3.32487 4.82662
RightShoulder  4.21251 6.93536 34.4589
RightArm  6.45495 -25.0699 33.0493
RightForeArm  121.199 79.2208 114.899
RightHand  -0.593673 6.97276 -5.91137
LeftUpLeg  -20.7385 3.33823 7.72498
LeftLeg  29.794 0.331061 0.534713
LeftFoot  -4.28743 0.826986 -12.9123
LeftToes  1.24767e-006 1.47042e-008 1.32732e-009
